<?xml version="1.0" encoding="utf-8"?>
<!-- Generator: Adobe Illustrator 19.0.0, SVG Export Plug-In . SVG Version: 6.00 Build 0)  -->
<svg version="1.1" id="layer" xmlns="http://www.w3.org/2000/svg" xmlns:xlink="http://www.w3.org/1999/xlink" x="0px" y="0px"
	 viewBox="-153 -46 652 652" style="enable-background:new -153 -46 652 652;" xml:space="preserve">
<style type="text/css">
	.st0{fill:#FFF3C3;}
	.st1{fill:#E60012;}
	.st2{fill:#0068B7;}
	.st3{fill:#FCC800;}
</style>
<g>
	<path class="st0" d="M77.7,330.2c-5-2-10-4.8-14.8-8.2c-4.8-3.4-9.3-7.4-13.5-11.9c-8.3-9-15-19.8-19.3-31.2
		c5.3-18.2,5.5-32.9,0.6-48.8c7-2.9,14.4-5.1,22.1-6.6c8.1-1.6,16.5-2.4,24.9-2.4c8.4,0,16.8,0.8,24.9,2.4c7.6,1.5,15,3.7,22.1,6.6
		c-4.9,15.9-4.7,30.6,0.6,48.8c-4.3,11.4-11,22.1-19.3,31.2c-4.2,4.5-8.7,8.5-13.5,11.9C87.7,325.4,82.7,328.1,77.7,330.2"/>
	<path class="st1" d="M92.5,323c14.8-10.3,27-26.3,33.7-44.1c-4.4-15-5.3-27.6-2.7-40.6l-0.5-1.7l-10.2-3.4l-1.1,0.8
		c-2.4,13-1.7,25.7,2.2,40.5c-9.6,22.3-26.3,35.8-38.2,41l-0.1,1.7l13.9,6.1L92.5,323z"/>
	<path class="st2" d="M77.7,220.2c-15.6,0-30.4,2.7-43.7,7.7l-0.5,0.9c3,8.7,4.3,15.3,4.7,21.9c0.5,7.9-0.3,16-2.7,25.7l-0.1,0.3
		l0.1,0.2c1.3,2.7,2.7,5.3,4.2,7.8c1.5,2.5,3.3,4.9,5.1,7.2c1.8,2.3,3.8,4.5,5.9,6.7c2.1,2.1,4.4,4.2,6.8,6.1
		c2.4,1.9,4.9,3.8,7.6,5.6c2.6,1.7,5.4,3.4,8.3,5c0.5,0.3,1,0.5,1.5,0.8l0.8,0l0-0.4c0.6-0.3,1.2-0.6,1.9-0.9
		c-11.7-5.7-27.2-19-36.3-40.1c3.9-14.8,4.6-27.5,2.2-40.5c10.6-3.2,22.1-4.9,34.1-4.9c16.5,0,32.1,3.3,45.8,9.2
		c0.6-2.9,1.3-5.8,2.3-8.8C111.3,223.6,95,220.2,77.7,220.2"/>
	<path class="st3" d="M92.5,323c-26.9-9.9-46.4-25.1-56.4-46.5c5-20.1,3.1-32.7-2.2-48.7c-1.5,0.5-2.9,1.1-4.4,1.7
		c5.2,16.3,4.9,31-0.4,49.4c8.8,23.5,27.3,43.7,48.5,52.2C82.8,329.1,87.8,326.3,92.5,323"/>
	<path d="M69.2,263.3v-0.2c3.9-0.5,7-2.3,7-6.9c0-5.8-4.6-8.4-10.3-8.4H50.4v3.2c2.1,0,2.8,0.6,2.8,3.1V277c0,1,0.8,1.8,1.8,1.8
		h11.8c7.7,0,10.4-2.9,10.4-7.8C77.3,266.5,74.8,263.9,69.2,263.3 M61.4,251.4h1.8c3.1,0,4.4,1.3,4.4,5c0,4.3-1.2,5.1-4.3,5.1h-2
		V251.4z M64,275.5h-2.6V265h2.9c3.1,0,4.5,1.5,4.5,5.3C68.8,274.5,67.2,275.5,64,275.5 M105,249.5l0.4,7.1h-3.9
		c-1-3.8-1.2-5.2-4.2-5.2h-1.3v27.3H88v-27.3h-1.3c-2.9,0-3.2,1.4-4.2,5.2h-3.9l0.4-7.1c0.1-0.9,0.8-1.7,1.8-1.7h22.3
		C104.1,247.9,104.9,248.6,105,249.5"/>
	<path d="M167,247.9l0.5,8.3h-3.3c-0.9-3.8-1.2-5.1-4-5.1h-1.9v22.6c0,2.6,0.8,3.2,3.5,3.2v2h-14v-2c2.7,0,3.5-0.6,3.5-3.2V251h-1.9
		c-2.9,0-3.2,1.3-4,5.1h-3.4l0.5-8.3H167z M185.8,265.1c2.2,0.6,3.9,1.8,4.8,3.2c1.2,1.6,2,3.2,3.4,6c0.8,1.7,1.2,2.5,3.4,2.6v2h-9
		c-2-4.6-2.6-6-4.3-9.2c-1.6-2.8-2.5-3.6-4.8-3.8v7.8c0,2.5,0.8,3.2,3,3.2v2h-13v-2c2.3,0,3-0.6,3-3.2v-20.4c0-2.5-0.7-3.2-3-3.2
		v-2.1h14.1c6.4,0,10.9,2.4,10.9,8.9c0,5.5-3.8,7.8-8.6,8.1V265.1z M182.2,251h-2.8v11.7h2.7c3.3,0,4.9-1.2,4.9-5.9
		C187,252.6,185.5,251,182.2,251 M215.1,270.5h-9.5l-1.1,3.8c-0.1,0.5-0.2,0.8-0.2,1.1c0,1.1,0.9,1.2,2.8,1.3v2h-9.8v-2
		c1.9-0.2,2.5-0.6,3.3-3l8.4-25.9h5.6l8.9,25.9c0.7,2,1.2,2.8,3,3v2h-12.6v-2c2-0.1,2.7-0.4,2.7-1.3c0-0.3-0.1-0.7-0.2-1.1
		L215.1,270.5z M206.5,267.2h7.5l-2.4-7.5c-0.8-2.5-1.2-4.1-1.3-5h-0.2c-0.2,0.9-0.6,2.4-1.4,5.1L206.5,267.2z M250.2,253.2
		c0-2.5-0.7-3.2-3.1-3.2v-2.1h9.8v2.1c-2.3,0-3,0.7-3,3.2v25.6h-5l-10.9-16.9c-2.1-3.2-3.2-5.6-3.7-6.6h-0.2c0.1,1,0.4,4,0.4,6.8
		v11.5c0,2.5,0.7,3.2,3.1,3.2v2h-9.9v-2c2.3,0,3-0.6,3-3.2v-20.4c0-2.5-0.7-3.2-3-3.2v-2.1H238l9.4,14.8c1.4,2.2,2.4,4.5,2.9,5.8
		h0.2c-0.1-1-0.4-4-0.4-6.6V253.2z M260.5,276.9V271h4.7c0.4,4.1,2.2,5.8,5.6,5.8c3.3,0,5.3-1.6,5.3-4.9c0-2.8-1.2-4.1-4.8-5.1
		l-3.2-0.8c-4.7-1.2-7.4-3.6-7.4-8.9c0-6.3,4.2-9.6,10.7-9.6c4.8,0,7.7,1.3,9.2,2.2v6.1h-4.5c-0.4-3.3-1.6-5.5-5.2-5.5
		c-2.9,0-4.4,1.6-4.4,4.3c0,2.4,1.1,3.8,4.3,4.6l3,0.8c5,1.3,8.3,4,8.3,9.6c0,6.4-4.2,10-11.8,10C265.2,279.4,262.5,278,260.5,276.9
		 M288.9,253.2c0-2.5-0.7-3.2-3-3.2v-2.1H299v2.1c-2.4,0-3.1,0.7-3.1,3.2v20.4c0,2.5,0.7,3.2,3.1,3.2v2h-13.1v-2c2.3,0,3-0.6,3-3.2
		V253.2z M312.4,275.8h4.2c2.9,0,4.4-1.3,5.2-5.6h3.4l-0.6,8.5h-22.2v-2c2.3,0,3-0.6,3-3.2v-20.4c0-2.5-0.7-3.2-3-3.2v-2.1h13.1v2.1
		c-2.4,0-3.1,0.7-3.1,3.2V275.8z M333.8,278.8l-8.9-26c-0.8-2.2-1.2-2.6-2.9-2.8v-2.1h12.8v2.1c-1.8,0-2.6,0.6-2.6,1.6
		c0,0.3,0.1,0.7,0.2,1l4.4,14.4c0.6,2,1.1,4.6,1.3,5.7h0.3c0.1-1.1,0.7-3.6,1.3-5.8l4.3-14.3c0.1-0.4,0.2-0.7,0.2-1
		c0-1.1-0.8-1.6-2.7-1.6v-2.1h9.9v2.1c-1.9,0.2-2.5,0.6-3.3,2.9l-8.5,25.9H333.8z M365.4,270.5h-9.5l-1.1,3.8
		c-0.1,0.5-0.2,0.8-0.2,1.1c0,1.1,0.9,1.2,2.8,1.3v2h-9.8v-2c1.9-0.2,2.5-0.6,3.3-3l8.4-25.9h5.6l8.9,25.9c0.7,2,1.2,2.8,3,3v2
		h-12.6v-2c2-0.1,2.7-0.4,2.7-1.3c0-0.3-0.1-0.7-0.2-1.1L365.4,270.5z M356.8,267.2h7.5l-2.4-7.5c-0.8-2.5-1.2-4.1-1.3-5h-0.2
		c-0.2,0.9-0.6,2.4-1.4,5.1L356.8,267.2z M400.5,253.2c0-2.5-0.7-3.2-3.1-3.2v-2.1h9.8v2.1c-2.3,0-3,0.7-3,3.2v25.6h-5l-10.9-16.9
		c-2.1-3.2-3.2-5.6-3.7-6.6h-0.2c0.1,1,0.4,4,0.4,6.8v11.5c0,2.5,0.7,3.2,3.1,3.2v2H378v-2c2.3,0,3-0.6,3-3.2v-20.4
		c0-2.5-0.7-3.2-3-3.2v-2.1h10.3l9.4,14.8c1.4,2.2,2.4,4.5,2.9,5.8h0.2c-0.1-1-0.4-4-0.4-6.6V253.2z M413.5,253.2
		c0-2.5-0.7-3.2-3-3.2v-2.1h13.1v2.1c-2.4,0-3.1,0.7-3.1,3.2v20.4c0,2.5,0.7,3.2,3.1,3.2v2h-13.1v-2c2.3,0,3-0.6,3-3.2V253.2z
		 M442.6,270.5h-9.5l-1.1,3.8c-0.1,0.5-0.2,0.8-0.2,1.1c0,1.1,0.9,1.2,2.8,1.3v2h-9.8v-2c1.9-0.2,2.5-0.6,3.3-3l8.4-25.9h5.6
		l8.9,25.9c0.7,2,1.2,2.8,3,3v2h-12.6v-2c2-0.1,2.7-0.4,2.7-1.3c0-0.3-0.1-0.7-0.2-1.1L442.6,270.5z M434.1,267.2h7.5l-2.4-7.5
		c-0.8-2.5-1.2-4.1-1.3-5h-0.2c-0.2,0.9-0.6,2.4-1.4,5.1L434.1,267.2z M455.1,252c0-4.2,3.1-7,6.9-7s6.9,2.8,6.9,7c0,4.2-3,7-6.9,7
		S455.1,256.2,455.1,252 M468.1,252c0-3.9-2.7-6.3-6.1-6.3c-3.4,0-6.1,2.4-6.1,6.3c0,3.8,2.7,6.2,6.1,6.2
		C465.4,258.3,468.1,255.8,468.1,252 M462,256.1h-3.5v-0.5c0.9,0,1.1-0.4,1.1-1.2v-4.8c0-0.9,0-1.2-1.1-1.2v-0.5h3.3
		c1.8,0,3.1,0.5,3.1,2.2c0,1.7-0.9,2.1-2.4,2.1v0.1c0.6,0.2,1.1,0.7,1.6,1.3c0.2,0.3,0.4,0.7,0.7,1.2c0.3,0.6,0.4,0.7,1.2,0.8v0.5
		h-2.1c-0.3-0.8-0.7-1.5-1-2.1c-0.7-1.3-0.9-1.7-2-1.7v2.1c0,1,0.2,1.2,1.2,1.2V256.1z M461.4,248.5h-0.6v3.2h0.9
		c1.4,0,1.9-0.4,1.9-1.6C463.5,249,463,248.5,461.4,248.5 M-131,276.8c2.3,0,3-0.6,3-3.2v-20.4c0-2.5-0.7-3.2-3-3.2v-2.1h14.3
		c6.3,0,10.5,2.6,10.5,8.2c0,4.2-2.5,6.1-6.6,6.9v0.2c5.4,0.6,7.8,3.4,7.8,7.7c0,5.2-3.4,8.1-10.5,8.1H-131V276.8z M-118.3,261.6
		c3.5,0,4.7-1.1,4.7-5.2c0-4-1.4-5.3-4.9-5.3h-2.6v10.5H-118.3z M-117.5,275.8c3.7,0,5.2-1.2,5.2-5.6c0-4-1.4-5.6-5.2-5.6h-3.5v11.2
		H-117.5z M-85.4,270.5h-9.5l-1.1,3.8c-0.1,0.5-0.2,0.8-0.2,1.1c0,1.1,0.9,1.2,2.8,1.3v2h-9.8v-2c1.9-0.2,2.5-0.6,3.3-3l8.4-25.9
		h5.6l8.9,25.9c0.7,2,1.2,2.8,3,3v2h-12.6v-2c2-0.1,2.7-0.4,2.7-1.3c0-0.3-0.1-0.7-0.2-1.1L-85.4,270.5z M-93.9,267.2h7.5l-2.4-7.5
		c-0.8-2.5-1.2-4.1-1.3-5h-0.2c-0.2,0.9-0.6,2.4-1.4,5.1L-93.9,267.2z M-50.3,253.2c0-2.5-0.7-3.2-3.1-3.2v-2.1h9.8v2.1
		c-2.3,0-3,0.7-3,3.2v25.6h-5l-10.9-16.9c-2.1-3.2-3.2-5.6-3.7-6.6h-0.2c0.1,1,0.4,4,0.4,6.8v11.5c0,2.5,0.7,3.2,3.1,3.2v2h-9.9v-2
		c2.3,0,3-0.6,3-3.2v-20.4c0-2.5-0.7-3.2-3-3.2v-2.1h10.3l9.4,14.8c1.4,2.2,2.4,4.5,2.9,5.8h0.2c-0.1-1-0.4-4-0.4-6.6V253.2z
		 M-40.2,263.8c0-11.3,5.8-16.4,14.4-16.4c4.4,0,7.4,0.8,9.5,2.2v6.1h-4.8c-0.7-3.4-1.7-5.1-4.8-5.1c-4.2,0-6.5,2.8-6.5,13
		c0,10.8,2.7,12.8,6.5,12.8c3.5,0,4.7-1.6,5.2-5.3h4.6v5.9c-1.8,1.3-5.6,2.4-10.1,2.4C-35.2,279.3-40.2,273.8-40.2,263.8 M3.2,270.5
		h-9.5l-1.1,3.8c-0.1,0.5-0.2,0.8-0.2,1.1c0,1.1,0.9,1.2,2.8,1.3v2h-9.8v-2c1.9-0.2,2.5-0.6,3.3-3l8.4-25.9h5.6l8.9,25.9
		c0.7,2,1.2,2.8,3,3v2H1.9v-2c2-0.1,2.7-0.4,2.7-1.3c0-0.3-0.1-0.7-0.2-1.1L3.2,270.5z M-5.4,267.2h7.5l-2.4-7.5
		c-0.8-2.5-1.2-4.1-1.3-5h-0.2c-0.2,0.9-0.6,2.4-1.4,5.1L-5.4,267.2z"/>
</g>
</svg>
